<svg width="57" height="57" viewBox="0 0 57 57" fill="none" xmlns="http://www.w3.org/2000/svg">
<path fill-rule="evenodd" clip-rule="evenodd" d="M28.5 11.875C29.287 11.875 29.925 12.513 29.925 13.3L29.925 43.7C29.925 44.487 29.287 45.125 28.5 45.125C27.713 45.125 27.075 44.487 27.075 43.7L27.075 13.3C27.075 12.513 27.713 11.875 28.5 11.875ZM13.3 25.175C14.087 25.175 14.725 25.813 14.725 26.6L14.725 30.4C14.725 31.187 14.087 31.825 13.3 31.825C12.513 31.825 11.875 31.187 11.875 30.4L11.875 26.6C11.875 25.813 12.513 25.175 13.3 25.175ZM43.7 25.175C44.487 25.175 45.125 25.813 45.125 26.6V30.4C45.125 31.187 44.487 31.825 43.7 31.825C42.913 31.825 42.275 31.187 42.275 30.4V26.6C42.275 25.813 42.913 25.175 43.7 25.175Z" fill="#3177FF"/>
<g opacity="0.5">
<path d="M37.525 19C37.525 18.213 36.887 17.575 36.1 17.575C35.313 17.575 34.675 18.213 34.675 19V38C34.675 38.787 35.313 39.425 36.1 39.425C36.887 39.425 37.525 38.787 37.525 38V19Z" fill="#3177FF"/>
<path d="M22.325 19C22.325 18.213 21.687 17.575 20.9 17.575C20.113 17.575 19.475 18.213 19.475 19V38C19.475 38.787 20.113 39.425 20.9 39.425C21.687 39.425 22.325 38.787 22.325 38V19Z" fill="#3177FF"/>
</g>
</svg>
