<svg width="21" height="21" viewBox="0 0 21 21" fill="none" xmlns="http://www.w3.org/2000/svg">
<path d="M18.1288 14.4295C17.6448 13.5928 17.0624 12.0014 17.0624 9.18775V8.60533C17.0624 4.97134 14.1421 1.99361 10.5491 1.969H10.4999C9.63778 1.96792 8.78393 2.13693 7.98724 2.46634C7.19056 2.79575 6.46668 3.2791 5.85708 3.8887C5.24748 4.4983 4.76414 5.22218 4.43472 6.01886C4.10531 6.81555 3.9363 7.6694 3.93738 8.5315V9.18775C3.93738 12.0014 3.35496 13.5928 2.87097 14.4295C2.75135 14.6287 2.68747 14.8564 2.68603 15.0888C2.68459 15.3211 2.74563 15.5496 2.86277 15.7502C2.97762 15.9509 3.14373 16.1174 3.34409 16.2327C3.54444 16.348 3.77184 16.408 4.003 16.4065H16.9968C17.2279 16.408 17.4553 16.348 17.6557 16.2327C17.856 16.1174 18.0221 15.9509 18.137 15.7502C18.2541 15.5496 18.3152 15.3211 18.3137 15.0888C18.3123 14.8564 18.2484 14.6287 18.1288 14.4295Z" fill="white"/>
<path d="M13.1167 17.7185H7.8667C7.69265 17.7185 7.52573 17.7876 7.40266 17.9107C7.27959 18.0338 7.21045 18.2007 7.21045 18.3748C7.21045 18.5488 7.27959 18.7157 7.40266 18.8388C7.52573 18.9619 7.69265 19.031 7.8667 19.031H13.1167C13.2907 19.031 13.4577 18.9619 13.5807 18.8388C13.7038 18.7157 13.7729 18.5488 13.7729 18.3748C13.7729 18.2007 13.7038 18.0338 13.5807 17.9107C13.4577 17.7876 13.2907 17.7185 13.1167 17.7185Z" fill="white"/>
</svg>
