<svg width="21" height="21" viewBox="0 0 21 21" fill="none" xmlns="http://www.w3.org/2000/svg">
<path d="M10.4999 1.96899C9.01827 1.96888 7.56214 2.35465 6.27489 3.0883C4.98764 3.82196 3.91365 4.87822 3.15867 6.15308C2.40368 7.42794 1.99374 8.87745 1.96919 10.3589C1.94464 11.8403 2.30634 13.3026 3.01867 14.6018L2.3214 17.0545C2.25582 17.2802 2.25166 17.5193 2.30934 17.7472C2.36702 17.975 2.48446 18.1833 2.64952 18.3506C2.81458 18.5165 3.02146 18.6346 3.24821 18.6923C3.47496 18.7501 3.71312 18.7454 3.93742 18.6788L6.39835 17.9815C7.53882 18.6066 8.8071 18.9626 10.1063 19.0225C11.4054 19.0823 12.7011 18.8443 13.8942 18.3267C15.0872 17.8091 16.1462 17.0256 16.9901 16.036C17.834 15.0464 18.4405 13.877 18.7632 12.6172C19.0859 11.3573 19.1163 10.0403 18.852 8.76692C18.5878 7.49352 18.0359 6.29737 17.2386 5.26992C16.4413 4.24247 15.4196 3.41091 14.2517 2.8388C13.0837 2.26669 11.8004 1.96917 10.4999 1.96899ZM13.1249 12.469H7.87491C7.70087 12.469 7.53395 12.3999 7.41088 12.2768C7.28781 12.1537 7.21866 11.9868 7.21866 11.8127C7.21866 11.6387 7.28781 11.4718 7.41088 11.3487C7.53395 11.2256 7.70087 11.1565 7.87491 11.1565H13.1249C13.299 11.1565 13.4659 11.2256 13.589 11.3487C13.712 11.4718 13.7812 11.6387 13.7812 11.8127C13.7812 11.9868 13.712 12.1537 13.589 12.2768C13.4659 12.3999 13.299 12.469 13.1249 12.469ZM13.1249 9.84399H7.87491C7.70087 9.84399 7.53395 9.77485 7.41088 9.65178C7.28781 9.52871 7.21866 9.36179 7.21866 9.18774C7.21866 9.0137 7.28781 8.84678 7.41088 8.7237C7.53395 8.60063 7.70087 8.53149 7.87491 8.53149H13.1249C13.299 8.53149 13.4659 8.60063 13.589 8.7237C13.712 8.84678 13.7812 9.0137 13.7812 9.18774C13.7812 9.36179 13.712 9.52871 13.589 9.65178C13.4659 9.77485 13.299 9.84399 13.1249 9.84399Z" fill="white"/>
</svg>
