<svg width="22" height="22" viewBox="0 0 22 22" fill="none" xmlns="http://www.w3.org/2000/svg">
<path d="M19.5151 11.2148C19.5109 13.2992 18.746 15.3103 17.3639 16.8705C15.9819 18.4308 14.0778 19.4329 12.0093 19.6887C11.9631 19.6932 11.9165 19.6881 11.8724 19.6738C11.8283 19.6595 11.7876 19.6361 11.7529 19.6053C11.7183 19.5745 11.6904 19.5369 11.6709 19.4947C11.6515 19.4526 11.641 19.4069 11.6401 19.3605V13.1836H13.6089C13.6986 13.1838 13.7874 13.1655 13.8699 13.13C13.9523 13.0945 14.0265 13.0425 14.088 12.9771C14.1495 12.9118 14.197 12.8345 14.2275 12.7501C14.2579 12.6657 14.2707 12.5759 14.2651 12.4863C14.2506 12.3166 14.1723 12.1588 14.0459 12.0446C13.9195 11.9304 13.7546 11.8684 13.5843 11.8711H11.6401V9.90234C11.6401 9.55424 11.7784 9.2204 12.0245 8.97426C12.2707 8.72812 12.6045 8.58984 12.9526 8.58984H14.2651C14.3549 8.59002 14.4437 8.57178 14.5261 8.53627C14.6085 8.50075 14.6828 8.44871 14.7443 8.38336C14.8058 8.31801 14.8532 8.24074 14.8837 8.15632C14.9142 8.07191 14.927 7.98214 14.9214 7.89257C14.9069 7.72288 14.8285 7.56501 14.7021 7.45083C14.5758 7.33664 14.4108 7.27464 14.2405 7.27734H12.9526C12.2564 7.27734 11.5888 7.5539 11.0965 8.04619C10.6042 8.53847 10.3276 9.20615 10.3276 9.90234V11.8711H8.35888C8.26913 11.8709 8.18031 11.8891 8.09789 11.9247C8.01548 11.9602 7.94122 12.0122 7.87971 12.0776C7.81821 12.1429 7.77076 12.2202 7.7403 12.3046C7.70984 12.389 7.69702 12.4788 7.70263 12.5684C7.71714 12.738 7.79549 12.8959 7.92186 13.0101C8.04822 13.1243 8.2132 13.1863 8.38349 13.1836H10.3276V19.3605C10.3279 19.4065 10.3184 19.4521 10.2999 19.4942C10.2814 19.5363 10.2543 19.574 10.2202 19.605C10.1862 19.6359 10.146 19.6594 10.1024 19.6738C10.0587 19.6882 10.0125 19.6933 9.96669 19.6887C5.63544 19.1637 2.28856 15.3984 2.46083 10.8949C2.55753 8.67087 3.51973 6.57272 5.14205 5.04831C6.76437 3.5239 8.91828 2.694 11.144 2.73576C13.3698 2.77751 15.4911 3.68761 17.0551 5.27179C18.6191 6.85597 19.5019 8.98873 19.5151 11.2148Z" fill="white"/>
</svg>
