<svg width="21" height="21" viewBox="0 0 21 21" fill="none" xmlns="http://www.w3.org/2000/svg">
<path d="M5.25 8.21484H1.75V18.2148H5.25V8.21484Z" fill="white"/>
<path d="M14 7.38153C15.3924 7.38153 16.7277 7.90832 17.7123 8.846C18.6969 9.78368 19.25 11.0554 19.25 12.3815V18.2149H15.75V12.3815C15.75 11.9395 15.5656 11.5156 15.2374 11.203C14.9092 10.8905 14.4641 10.7149 14 10.7149C13.5359 10.7149 13.0908 10.8905 12.7626 11.203C12.4344 11.5156 12.25 11.9395 12.25 12.3815V18.2149H8.75V12.3815C8.75 11.0554 9.30312 9.78368 10.2877 8.846C11.2723 7.90832 12.6076 7.38153 14 7.38153Z" fill="white"/>
<path d="M3.5 5.71486C4.4665 5.71486 5.25 4.96867 5.25 4.0482C5.25 3.12772 4.4665 2.38153 3.5 2.38153C2.5335 2.38153 1.75 3.12772 1.75 4.0482C1.75 4.96867 2.5335 5.71486 3.5 5.71486Z" fill="white"/>
</svg>
