<svg width="231" height="67" viewBox="0 0 231 67" fill="none" xmlns="http://www.w3.org/2000/svg">
<path d="M42.6922 33.5L20.1056 50.25C19.4211 49.9988 18.9078 49.245 18.9078 48.1562V18.9275C18.9078 17.755 19.4211 17.0012 20.1911 16.75L42.6922 33.5Z" fill="url(#paint0_linear_1_189)"/>
<path d="M42.6922 39.0275L22.0733 49.9988C21.3033 50.4175 20.6189 50.4175 20.1056 50.25L38.1578 32.4113L42.6922 39.0275Z" fill="url(#paint1_linear_1_189)"/>
<path d="M20.1911 16.75C20.7044 16.5825 21.3889 16.6663 22.0733 17.085L42.6067 28.0563L38.0722 34.505L20.1911 16.75Z" fill="url(#paint2_linear_1_189)"/>
<path d="M42.6067 28.0562L49.8789 31.9087C51.59 32.83 51.59 34.2537 49.8789 35.175L42.6922 39.0275L37.0456 33.5L42.6067 28.0562Z" fill="url(#paint3_linear_1_189)"/>
<path d="M110.623 22.11C113.618 22.11 115.842 19.8487 115.842 17.0012C115.842 14.07 113.532 11.8087 110.623 11.8087C107.714 11.8087 105.404 14.1537 105.404 17.0012C105.404 19.8487 107.714 22.11 110.623 22.11ZM110.623 20.9375C108.399 20.9375 106.773 19.1787 106.773 17.0012C106.773 14.8237 108.399 12.9812 110.623 12.9812C112.848 12.9812 114.559 14.8237 114.559 17.0012C114.559 19.1787 112.848 20.9375 110.623 20.9375ZM109.426 52.1762C113.703 52.1762 117.04 48.9937 117.04 44.8062C117.04 40.6187 113.703 37.3525 109.426 37.3525C105.148 37.3525 101.811 40.6187 101.811 44.8062C101.811 48.9937 105.148 52.1762 109.426 52.1762ZM109.426 49.245C107.03 49.245 105.148 47.235 105.148 44.8062C105.148 42.2937 106.944 40.2837 109.426 40.2837C111.992 40.2837 113.703 42.21 113.703 44.8062C113.703 47.235 111.821 49.245 109.426 49.245ZM129.959 50.3337V51.59C129.959 54.27 128.59 55.8612 125.938 55.8612C123.029 55.8612 122.173 53.265 122.173 53.265L119.264 54.4375C119.264 54.4375 120.89 58.7925 125.938 58.7925C130.558 58.7925 133.124 55.8612 133.124 51.0875V37.855H129.959V39.1112C129.36 38.2737 127.734 37.3525 125.938 37.3525C121.917 37.3525 118.666 40.7862 118.666 44.8062C118.666 48.7425 121.917 52.1762 125.938 52.1762C127.734 52.1762 129.274 51.4225 129.959 50.3337ZM218.081 37.2687C218.081 37.185 214.146 37.185 214.146 37.185L210.124 47.0675L205.761 37.185L201.997 37.2687L208.328 51.255L204.82 58.5412H208.584L218.081 37.2687ZM197.206 49.8312H197.377V51.8412H200.713V43.0475C200.713 38.525 197.462 36.3475 193.527 36.3475C188.736 36.3475 187.281 39.7812 187.281 39.7812L190.19 41.1212C190.19 41.1212 191.046 39.3625 193.527 39.3625C195.323 39.3625 197.291 40.4512 197.291 42.6287C194.553 41.1212 186.768 41.54 186.768 47.0675C186.768 51.1712 190.96 52.3437 192.586 52.3437C194.724 52.3437 196.093 51.5062 197.206 49.8312ZM148.439 52.1762C151.433 52.1762 153.572 50.585 154.77 48.91L152.118 47.235C152.118 47.235 151.091 49.245 148.439 49.245C146.813 49.245 145.53 48.4912 144.76 46.9837L154.856 42.88C153.914 40.1162 151.776 37.3525 148.097 37.3525C143.904 37.3525 140.91 40.6187 140.91 44.8062C140.91 48.9937 144.161 52.1762 148.439 52.1762ZM92.8278 52.1762C97.1056 52.1762 100.442 48.9937 100.442 44.8062C100.442 40.6187 97.1056 37.3525 92.8278 37.3525C88.55 37.3525 85.2133 40.6187 85.2133 44.8062C85.2133 48.9937 88.55 52.1762 92.8278 52.1762ZM72.8933 52.1762C79.7378 52.1762 84.8711 47.1512 83.6733 39.6137H72.8933V42.7962H80.5078C80.08 46.7325 77.0856 48.9937 72.8933 48.9937C68.1022 48.9937 64.4233 45.3087 64.4233 40.7025C64.4233 35.9287 68.1878 32.3275 72.8933 32.3275C75.1178 32.3275 77 33.0812 78.6256 34.5887L80.9356 32.3275C78.6256 30.3175 75.9733 29.145 72.8933 29.145C66.4767 29.145 60.9156 34.3375 60.9156 40.7025C60.9156 47.0675 66.3911 52.1762 72.8933 52.1762ZM184.03 51.8412V30.2337H180.693V51.8412H184.03ZM170.683 30.2337H162.983V51.8412H166.32V43.4662H170.683C174.79 43.4662 177.784 40.7862 177.784 36.85C177.784 32.9137 174.79 30.2337 170.683 30.2337ZM139.028 51.7575V29.9825H135.691V51.7575H139.028ZM126.194 49.245C123.713 49.245 122.002 47.235 122.002 44.8062C122.002 42.2937 123.713 40.2837 126.194 40.2837C128.676 40.2837 130.216 42.2937 130.216 44.8062C130.216 47.235 128.59 49.245 126.194 49.245ZM92.8278 49.245C90.4322 49.245 88.55 47.235 88.55 44.8062C88.55 42.2937 90.3467 40.2837 92.8278 40.2837C95.3944 40.2837 97.1056 42.21 97.1056 44.8062C97.1056 47.235 95.2233 49.245 92.8278 49.245ZM193.013 49.0775C191.816 49.0775 190.276 48.575 190.276 47.1512C190.276 44.1362 195.837 44.1362 197.377 45.56C197.377 46.3975 195.751 49.0775 193.013 49.0775ZM144.161 44.555C144.161 41.6237 146.557 40.2 148.182 40.2C149.209 40.2 150.492 40.7025 151.006 41.7912L144.161 44.555ZM170.769 33.4162C173.079 33.4162 174.362 35.3425 174.362 36.85C174.362 38.3575 173.25 40.2837 170.769 40.2837H166.32V33.4162H170.769ZM72.1233 16.6662H67.1611V17.8387H70.84C70.7544 19.765 69.1289 20.9375 67.1611 20.9375C65.0222 20.9375 63.2256 19.2625 63.2256 17.0012C63.2256 14.4887 65.1933 12.9812 67.1611 12.9812C69.1289 12.9812 69.9844 14.1537 69.9844 14.1537L70.84 13.3162C70.84 13.3162 69.7278 11.8087 67.1611 11.8087C64.2522 11.8087 61.9422 14.07 61.9422 17.0012C61.9422 19.765 64.1667 22.11 67.1611 22.11C70.07 22.11 72.5511 20.0162 72.1233 16.6662ZM118.666 21.9425V13.8187L123.799 21.9425H125.168V12.06H123.884V17.8387L123.97 19.765H123.884L119.008 12.06H117.382V21.9425H118.666ZM101.726 13.2325V12.06H94.7956V13.2325H97.6189V21.9425H98.9022V13.2325H101.726ZM93.4267 21.9425V12.06H92.1433V21.9425H93.4267ZM87.6944 13.2325V12.06H80.7644V13.2325H83.5878V21.9425H84.8711V13.2325H87.6944ZM79.6522 13.2325V12.06H73.7489V21.9425H79.6522V20.6862H75.0322V17.5875H79.2244V16.415H75.0322V13.2325H79.6522Z" fill="white"/>
<defs>
<linearGradient id="paint0_linear_1_189" x1="-17.1111" y1="18.5087" x2="-17.1111" y2="41.7912" gradientUnits="userSpaceOnUse">
<stop stop-color="#3588B7"/>
<stop offset="1" stop-color="#66FFD4"/>
</linearGradient>
<linearGradient id="paint1_linear_1_189" x1="20.1056" y1="32.4113" x2="42.6922" y2="32.4113" gradientUnits="userSpaceOnUse">
<stop stop-color="#9635C2"/>
<stop offset="1" stop-color="#E3424F"/>
</linearGradient>
<linearGradient id="paint2_linear_1_189" x1="20.1911" y1="16.6691" x2="42.6067" y2="16.6691" gradientUnits="userSpaceOnUse">
<stop stop-color="#60CAB6"/>
<stop offset="1" stop-color="#D6FFA2"/>
</linearGradient>
<linearGradient id="paint3_linear_1_189" x1="5.9287" y1="45.4811" x2="15.6978" y2="55.4608" gradientUnits="userSpaceOnUse">
<stop stop-color="#FF9877"/>
<stop offset="1" stop-color="#FFC466"/>
</linearGradient>
</defs>
</svg>
