<svg width="21" height="21" viewBox="0 0 21 21" fill="none" xmlns="http://www.w3.org/2000/svg">
<path d="M19.1542 10.4997V17.0622C19.1521 17.9318 18.8057 18.7651 18.1908 19.38C17.5759 19.9949 16.7426 20.3413 15.873 20.3435H11.1562C10.9821 20.3435 10.8152 20.2743 10.6922 20.1512C10.5691 20.0282 10.4999 19.8613 10.4999 19.6872C10.4999 19.5132 10.5691 19.3462 10.6922 19.2232C10.8152 19.1001 10.9821 19.031 11.1562 19.031H15.873C16.3945 19.0288 16.894 18.8207 17.2627 18.4519C17.6315 18.0832 17.8396 17.5837 17.8417 17.0622V16.9474C17.6313 17.0233 17.4092 17.0621 17.1855 17.0622H15.873C15.3508 17.0622 14.8501 16.8548 14.4809 16.4856C14.1117 16.1164 13.9042 15.6156 13.9042 15.0935V11.8122C13.9042 11.2901 14.1117 10.7893 14.4809 10.4201C14.8501 10.0509 15.3508 9.84345 15.873 9.84345H17.8089C17.6444 8.04059 16.8085 6.36535 15.4668 5.14984C14.1252 3.93433 12.3759 3.26729 10.5656 3.28095H10.5574C8.74599 3.26348 6.99454 3.92922 5.65211 5.14546C4.30968 6.36171 3.47484 8.03915 3.314 9.84345H5.24994C5.77142 9.84561 6.27092 10.0537 6.63967 10.4225C7.00842 10.7912 7.21653 11.2907 7.21869 11.8122V15.0935C7.21653 15.6149 7.00842 16.1144 6.63967 16.4832C6.27092 16.8519 5.77142 17.06 5.24994 17.0622H3.93744C3.41596 17.06 2.91645 16.8519 2.54771 16.4832C2.17896 16.1144 1.97085 15.6149 1.96869 15.0935V10.4997C1.96866 9.37452 2.19122 8.26044 2.62354 7.22162C3.05586 6.1828 3.68941 5.23976 4.4877 4.44681C5.28599 3.65385 6.23326 3.02665 7.27496 2.6013C8.31665 2.17596 9.4322 1.96088 10.5574 1.96845H10.623C12.8849 1.97063 15.0536 2.87015 16.6531 4.4696C18.2525 6.06905 19.1521 8.23774 19.1542 10.4997Z" fill="white"/>
</svg>
