<svg width="22" height="22" viewBox="0 0 22 22" fill="none" xmlns="http://www.w3.org/2000/svg">
<path d="M10.9839 13.8398C12.4336 13.8398 13.6089 12.6646 13.6089 11.2148C13.6089 9.7651 12.4336 8.58984 10.9839 8.58984C9.53414 8.58984 8.35889 9.7651 8.35889 11.2148C8.35889 12.6646 9.53414 13.8398 10.9839 13.8398Z" fill="white"/>
<path d="M14.5933 3.01172H7.37451C6.15617 3.01172 4.98774 3.4957 4.12624 4.3572C3.26474 5.21869 2.78076 6.38713 2.78076 7.60547V14.8242C2.78076 16.0426 3.26474 17.211 4.12624 18.0725C4.98774 18.934 6.15617 19.418 7.37451 19.418H14.5933C15.8116 19.418 16.98 18.934 17.8415 18.0725C18.703 17.211 19.187 16.0426 19.187 14.8242V7.60547C19.187 6.38713 18.703 5.21869 17.8415 4.3572C16.98 3.4957 15.8116 3.01172 14.5933 3.01172ZM10.9839 15.1523C10.2051 15.1523 9.44385 14.9214 8.79633 14.4888C8.14881 14.0561 7.64413 13.4411 7.34611 12.7217C7.04809 12.0022 6.97012 11.2105 7.12205 10.4467C7.27397 9.68288 7.64898 8.98128 8.19965 8.43061C8.75032 7.87994 9.45192 7.50493 10.2157 7.353C10.9795 7.20107 11.7712 7.27905 12.4907 7.57707C13.2102 7.87509 13.8251 8.37977 14.2578 9.02729C14.6905 9.6748 14.9214 10.4361 14.9214 11.2148C14.9214 12.2591 14.5065 13.2607 13.7681 13.9991C13.0297 14.7375 12.0282 15.1523 10.9839 15.1523ZM15.2495 7.93359C15.0548 7.93359 14.8645 7.87586 14.7026 7.7677C14.5407 7.65953 14.4146 7.50579 14.3401 7.32592C14.2656 7.14605 14.2461 6.94813 14.2841 6.75718C14.322 6.56623 14.4158 6.39083 14.5535 6.25316C14.6911 6.11549 14.8665 6.02174 15.0575 5.98376C15.2484 5.94578 15.4463 5.96527 15.6262 6.03977C15.8061 6.11428 15.9598 6.24045 16.068 6.40233C16.1762 6.56421 16.2339 6.75453 16.2339 6.94922C16.2339 7.21029 16.1302 7.46067 15.9456 7.64528C15.761 7.82988 15.5106 7.93359 15.2495 7.93359Z" fill="white"/>
</svg>
