<svg width="24" height="28" viewBox="0 0 24 28" fill="none" xmlns="http://www.w3.org/2000/svg">
<path d="M23.497 21.8205C23.0661 22.7987 22.5561 23.6992 21.9651 24.5271C21.1596 25.6557 20.5001 26.4369 19.9918 26.8707C19.2039 27.5828 18.3597 27.9475 17.4557 27.9682C16.8067 27.9682 16.024 27.7867 15.113 27.4186C14.199 27.0522 13.359 26.8707 12.5909 26.8707C11.7854 26.8707 10.9215 27.0522 9.99748 27.4186C9.07202 27.7867 8.32648 27.9786 7.75647 27.9976C6.88958 28.0339 6.0255 27.6588 5.16301 26.8707C4.61252 26.3989 3.92396 25.59 3.09911 24.4441C2.2141 23.2205 1.4865 21.8015 0.916488 20.1838C0.306024 18.4364 0 16.7444 0 15.1062C0 13.2298 0.412604 11.6114 1.23904 10.2551C1.88855 9.16575 2.75263 8.30642 3.83409 7.67557C4.91555 7.04473 6.08407 6.72326 7.34246 6.70269C8.03101 6.70269 8.93396 6.91199 10.056 7.32334C11.175 7.73607 11.8934 7.94537 12.2084 7.94537C12.4439 7.94537 13.242 7.70063 14.595 7.21272C15.8745 6.76024 16.9544 6.57289 17.8391 6.64669C20.2363 6.83681 22.0372 7.76545 23.2349 9.43848C21.091 10.715 20.0305 12.503 20.0516 14.7967C20.0709 16.5833 20.7305 18.07 22.0267 19.2505C22.6141 19.7983 23.2701 20.2218 24 20.5225C23.8417 20.9736 23.6746 21.4057 23.497 21.8205ZM17.9991 0.56016C17.9991 1.96048 17.4785 3.26795 16.4409 4.47814C15.1886 5.91681 13.674 6.74814 12.0315 6.61696C12.0106 6.44897 11.9984 6.27216 11.9984 6.08636C11.9984 4.74206 12.5939 3.30338 13.6515 2.12707C14.1795 1.53149 14.8509 1.03627 15.6653 0.641218C16.4778 0.252064 17.2464 0.0368539 17.9692 0C17.9903 0.187201 17.9991 0.374414 17.9991 0.560141V0.56016Z" fill="white"/>
</svg>
