<svg width="21" height="21" viewBox="0 0 21 21" fill="none" xmlns="http://www.w3.org/2000/svg">
<path d="M18.7197 12.5506L17.1447 8.22757C17.0246 7.90155 16.7801 7.63645 16.4649 7.49037C16.1497 7.34429 15.7894 7.32915 15.463 7.44828L10.5493 9.23656L11.4517 4.08499C11.4827 3.91495 11.4798 3.74046 11.4432 3.57153C11.4066 3.40261 11.337 3.24257 11.2384 3.10062C11.0383 2.81666 10.7351 2.62232 10.3935 2.55921L5.86535 1.76351C5.52301 1.70617 5.17186 1.78591 4.88786 1.98548C4.60386 2.18505 4.40984 2.4884 4.34778 2.82992L2.36262 14.0846C2.27824 14.5669 2.29062 15.0611 2.39906 15.5385C2.5075 16.0159 2.70983 16.467 2.99426 16.8655C3.26841 17.2553 3.61806 17.5862 4.02247 17.8384C4.42688 18.0907 4.87782 18.2591 5.34856 18.3338C5.53067 18.3594 5.71427 18.3731 5.89817 18.3748H17.3907C17.7388 18.3748 18.0727 18.2366 18.3188 17.9904C18.565 17.7443 18.7032 17.4104 18.7032 17.0623V13.4776C18.8236 13.1813 18.8294 12.8509 18.7197 12.5506ZM5.90637 15.7498C5.71168 15.7498 5.52136 15.6921 5.35948 15.5839C5.1976 15.4758 5.07143 15.322 4.99693 15.1422C4.92242 14.9623 4.90293 14.7644 4.94091 14.5734C4.97889 14.3825 5.07264 14.2071 5.21031 14.0694C5.34798 13.9317 5.52338 13.838 5.71433 13.8C5.90528 13.762 6.1032 13.7815 6.28307 13.856C6.46294 13.9305 6.61668 14.0567 6.72485 14.2186C6.83301 14.3805 6.89074 14.5708 6.89074 14.7655C6.89074 15.0265 6.78703 15.2769 6.60243 15.4615C6.41782 15.6461 6.16744 15.7498 5.90637 15.7498ZM17.3907 17.0623H10.1474L17.3907 14.4291V17.0623ZM9.31067 15.9713C9.37716 15.782 9.42658 15.5871 9.45832 15.3889L10.2868 10.7295L15.9142 8.67874L17.481 12.9936L9.31067 15.9713Z" fill="white"/>
</svg>
