<svg width="21" height="21" viewBox="0 0 21 21" fill="none" xmlns="http://www.w3.org/2000/svg">
<path d="M10.5 6.23486C11.2139 6.23486 11.9117 6.44655 12.5053 6.84315C13.0988 7.23976 13.5614 7.80346 13.8346 8.46299C14.1078 9.12252 14.1793 9.84824 14.04 10.5484C13.9008 11.2485 13.557 11.8917 13.0522 12.3965C12.5474 12.9012 11.9043 13.245 11.2042 13.3843C10.504 13.5235 9.77828 13.4521 9.11875 13.1789C8.45923 12.9057 7.89552 12.4431 7.49892 11.8495C7.10231 11.2559 6.89063 10.5581 6.89063 9.84424C6.89063 8.88697 7.2709 7.96891 7.94779 7.29202C8.62468 6.61514 9.54274 6.23486 10.5 6.23486ZM18.9656 6.0708C18.9075 6.17143 18.8238 6.25484 18.7229 6.31249C18.622 6.37014 18.5076 6.39997 18.3914 6.39893C18.2758 6.39986 18.1622 6.36862 18.0633 6.30869L17.6859 6.08721C17.5021 6.24484 17.2907 6.3672 17.0625 6.44814V6.89111C17.0625 7.06516 16.9934 7.23208 16.8703 7.35515C16.7472 7.47822 16.5803 7.54736 16.4063 7.54736C16.2322 7.54736 16.0653 7.47822 15.9422 7.35515C15.8191 7.23208 15.75 7.06516 15.75 6.89111V6.44814C15.5218 6.3672 15.3104 6.24484 15.1266 6.08721L14.7492 6.30869C14.6503 6.36862 14.5367 6.39986 14.4211 6.39893C14.2774 6.39806 14.1379 6.35003 14.0241 6.26221C13.9103 6.1744 13.8285 6.05166 13.7912 5.91284C13.754 5.77402 13.7633 5.62681 13.8178 5.49381C13.8723 5.36082 13.969 5.24939 14.093 5.17666L14.4703 4.95518C14.4468 4.83633 14.4358 4.71537 14.4375 4.59424C14.4358 4.47311 14.4468 4.35214 14.4703 4.2333L14.093 4.01182C14.0173 3.97002 13.9508 3.91353 13.8974 3.84565C13.8439 3.77778 13.8045 3.69989 13.7816 3.61658C13.7587 3.53327 13.7526 3.44621 13.7638 3.36053C13.7751 3.27485 13.8033 3.19228 13.8469 3.11768C13.9358 2.9674 14.0804 2.85819 14.2493 2.81367C14.4181 2.76915 14.5977 2.7929 14.7492 2.87979L15.1266 3.10127C15.3104 2.94364 15.5218 2.82128 15.75 2.74033V2.29736C15.75 2.12331 15.8191 1.9564 15.9422 1.83332C16.0653 1.71025 16.2322 1.64111 16.4063 1.64111C16.5803 1.64111 16.7472 1.71025 16.8703 1.83332C16.9934 1.9564 17.0625 2.12331 17.0625 2.29736V2.74033C17.2907 2.82128 17.5021 2.94364 17.6859 3.10127L18.0633 2.87979C18.2148 2.7929 18.3944 2.76915 18.5632 2.81367C18.7321 2.85819 18.8767 2.9674 18.9656 3.11768C19.0092 3.19228 19.0375 3.27485 19.0487 3.36053C19.0599 3.44621 19.0538 3.53327 19.0309 3.61658C19.008 3.69989 18.9686 3.77778 18.9151 3.84565C18.8617 3.91353 18.7952 3.97002 18.7195 4.01182L18.3422 4.2333C18.3657 4.35214 18.3767 4.47311 18.375 4.59424C18.3767 4.71537 18.3657 4.83633 18.3422 4.95518L18.7195 5.17666C18.7952 5.21845 18.8617 5.27495 18.9151 5.34283C18.9686 5.4107 19.008 5.48859 19.0309 5.5719C19.0538 5.65521 19.0599 5.74226 19.0487 5.82794C19.0375 5.91362 19.0092 5.99619 18.9656 6.0708ZM16.4063 5.25049C16.536 5.25049 16.6629 5.212 16.7708 5.13989C16.8788 5.06778 16.9629 4.96529 17.0125 4.84537C17.0622 4.72546 17.0752 4.59351 17.0499 4.46621C17.0246 4.33891 16.9621 4.22198 16.8703 4.1302C16.7785 4.03842 16.6616 3.97592 16.5343 3.9506C16.407 3.92528 16.275 3.93827 16.1551 3.98794C16.0352 4.03761 15.9327 4.12173 15.8606 4.22965C15.7885 4.33757 15.75 4.46444 15.75 4.59424C15.75 4.76829 15.8191 4.93521 15.9422 5.05828C16.0653 5.18135 16.2322 5.25049 16.4063 5.25049ZM18.2438 8.90908C18.0723 8.92967 17.9159 9.01699 17.8084 9.15212C17.7009 9.28724 17.651 9.45929 17.6695 9.63096C17.7023 9.91965 17.7187 10.2099 17.7188 10.5005C17.7212 12.2669 17.0729 13.9723 15.8977 15.2911C15.3664 14.5291 14.6819 13.8865 13.8879 13.4044C12.9762 14.2778 11.7625 14.7654 10.5 14.7654C9.2375 14.7654 8.02376 14.2778 7.11211 13.4044C6.31811 13.8865 5.63356 14.5291 5.10235 15.2911C4.17934 14.2507 3.57654 12.9658 3.36645 11.5909C3.15636 10.216 3.34792 8.80975 3.91809 7.54116C4.48826 6.27257 5.41277 5.1957 6.58043 4.44007C7.74808 3.68443 9.10917 3.28219 10.5 3.28174C10.7247 3.28039 10.9492 3.29134 11.1727 3.31455C11.2588 3.32209 11.3457 3.31258 11.4282 3.28657C11.5107 3.26056 11.5872 3.21855 11.6535 3.16294C11.7198 3.10734 11.7745 3.03922 11.8144 2.96249C11.8543 2.88575 11.8788 2.8019 11.8863 2.71572C11.8939 2.62954 11.8844 2.54272 11.8584 2.46022C11.8323 2.37771 11.7903 2.30114 11.7347 2.23487C11.6791 2.16859 11.611 2.11393 11.5343 2.07398C11.4575 2.03403 11.3737 2.00959 11.2875 2.00205C11.0332 1.97744 10.7625 1.96924 10.5 1.96924C8.78098 1.96983 7.10223 2.48973 5.68375 3.46079C4.26527 4.43185 3.17322 5.80877 2.55072 7.41113C1.92823 9.01348 1.80431 10.7665 2.19522 12.4405C2.58613 14.1145 3.47363 15.6313 4.74141 16.7923L4.84805 16.8907C6.40767 18.2701 8.4179 19.0315 10.5 19.0315C12.5821 19.0315 14.5923 18.2701 16.152 16.8907L16.2586 16.7923C17.1332 15.9942 17.8315 15.0224 18.3089 13.939C18.7864 12.8556 19.0324 11.6844 19.0313 10.5005C19.0328 10.1606 19.0136 9.82088 18.9738 9.4833C18.9637 9.39763 18.9367 9.31481 18.8945 9.23957C18.8523 9.16433 18.7957 9.09815 18.7279 9.04481C18.66 8.99148 18.5824 8.95204 18.4993 8.92875C18.4163 8.90546 18.3294 8.89878 18.2438 8.90908Z" fill="white"/>
</svg>
