<svg width="32" height="32" viewBox="0 0 32 32" fill="none" xmlns="http://www.w3.org/2000/svg">
<path d="M16 28C22.6274 28 28 22.6274 28 16C28 9.37258 22.6274 4 16 4C9.37258 4 4 9.37258 4 16C4 22.6274 9.37258 28 16 28Z" stroke="black" stroke-width="2" stroke-linecap="round" stroke-linejoin="round"/>
<path d="M15.9999 20C18.7614 20 20.9999 17.7614 20.9999 15C20.9999 12.2386 18.7614 10 15.9999 10C13.2385 10 10.9999 12.2386 10.9999 15C10.9999 17.7614 13.2385 20 15.9999 20Z" stroke="black" stroke-width="2" stroke-linecap="round" stroke-linejoin="round"/>
<path d="M7.9751 24.925C8.72749 23.4431 9.87555 22.1984 11.292 21.3289C12.7085 20.4595 14.3381 19.9993 16.0001 19.9993C17.6621 19.9993 19.2917 20.4595 20.7082 21.3289C22.1246 22.1984 23.2727 23.4431 24.0251 24.925" stroke="black" stroke-width="2" stroke-linecap="round" stroke-linejoin="round"/>
</svg>
